<svg width="186" height="46" viewBox="0 0 186 46" fill="none" xmlns="http://www.w3.org/2000/svg">
<rect width="127" height="46" fill="#00AFDB"/>
<path d="M19.1338 24.4932V28H17.083V18.0469H20.9658C21.7132 18.0469 22.3695 18.1836 22.9346 18.457C23.5042 18.7305 23.9417 19.1201 24.2471 19.626C24.5524 20.1273 24.7051 20.6992 24.7051 21.3418C24.7051 22.3171 24.3701 23.0872 23.7002 23.6523C23.0348 24.2129 22.112 24.4932 20.9316 24.4932H19.1338ZM19.1338 22.832H20.9658C21.5081 22.832 21.9206 22.7044 22.2031 22.4492C22.4902 22.194 22.6338 21.8294 22.6338 21.3555C22.6338 20.8678 22.4902 20.4736 22.2031 20.1729C21.916 19.8721 21.5195 19.7171 21.0137 19.708H19.1338V22.832ZM28.1709 26.3525H32.5254V28H26.1201V18.0469H28.1709V26.3525ZM39.4639 25.9492H35.8682L35.1846 28H33.0039L36.709 18.0469H38.6094L42.335 28H40.1543L39.4639 25.9492ZM36.4219 24.2881H38.9102L37.6592 20.5625L36.4219 24.2881ZM45.6709 22.5312L47.7422 18.0469H49.9844L46.7168 24.3906V28H44.6318V24.3906L41.3643 18.0469H43.6133L45.6709 22.5312ZM57.0596 18.0469L59.6162 25.2656L62.1592 18.0469H64.8525V28H62.7949V25.2793L63 20.583L60.3135 28H58.9053L56.2256 20.5898L56.4307 25.2793V28H54.3799V18.0469H57.0596ZM72.3857 25.9492H68.79L68.1064 28H65.9258L69.6309 18.0469H71.5312L75.2568 28H73.0762L72.3857 25.9492ZM69.3438 24.2881H71.832L70.5811 20.5625L69.3438 24.2881ZM79.8711 24.3564H78.2373V28H76.1865V18.0469H79.8848C81.0605 18.0469 81.9674 18.3089 82.6055 18.833C83.2435 19.3571 83.5625 20.0977 83.5625 21.0547C83.5625 21.7337 83.4144 22.3011 83.1182 22.7568C82.8265 23.208 82.3822 23.568 81.7852 23.8369L83.9385 27.9043V28H81.7373L79.8711 24.3564ZM78.2373 22.6953H79.8916C80.4066 22.6953 80.8053 22.5654 81.0879 22.3057C81.3704 22.0413 81.5117 21.679 81.5117 21.2188C81.5117 20.7493 81.3773 20.3802 81.1084 20.1113C80.8441 19.8424 80.4362 19.708 79.8848 19.708H78.2373V22.6953ZM88.2451 24.0078L87.1787 25.1562V28H85.1279V18.0469H87.1787V22.5586L88.0811 21.3213L90.6172 18.0469H93.1396L89.6055 22.4697L93.2422 28H90.8018L88.2451 24.0078ZM100.003 23.6865H96.0654V26.3525H100.687V28H94.0146V18.0469H100.673V19.708H96.0654V22.0801H100.003V23.6865ZM109.519 19.708H106.47V28H104.419V19.708H101.411V18.0469H109.519V19.708Z" fill="white"/>
<rect width="59" height="46" transform="translate(127)" fill="#009CC2"/>
<path fill-rule="evenodd" clip-rule="evenodd" d="M153.647 17.1722C153.363 17.1722 153.134 16.9334 153.134 16.6548C153.134 16.3763 153.363 16.1375 153.647 16.1375C153.944 16.1375 154.173 16.3763 154.173 16.6548C154.173 16.9334 153.944 17.1722 153.647 17.1722ZM159.344 17.1722C159.047 17.1722 158.818 16.9334 158.818 16.6548C158.818 16.3763 159.047 16.1375 159.344 16.1375C159.628 16.1375 159.857 16.3763 159.857 16.6548C159.857 16.9334 159.628 17.1722 159.344 17.1722ZM148.381 19.6129C147.612 19.6129 146.991 20.2232 146.991 20.9659V26.6698C146.991 27.426 147.612 28.0362 148.381 28.0362C149.151 28.0362 149.759 27.426 149.759 26.6698V20.9659C149.759 20.2232 149.138 19.6129 148.381 19.6129ZM162.692 19.8649H150.299V28.6995C150.299 29.5086 150.96 30.1586 151.784 30.1586H152.783L152.796 33.1698C152.796 33.9259 153.417 34.5362 154.173 34.5362C154.943 34.5362 155.564 33.9259 155.564 33.1698V30.1586H157.427V33.1698C157.427 33.9259 158.048 34.5362 158.818 34.5362C159.587 34.5362 160.208 33.9259 160.208 33.1698V30.1586H161.221C162.031 30.1586 162.692 29.5086 162.692 28.6995V19.8649ZM159.56 14.4926L160.519 12.7549C160.573 12.6621 160.546 12.5427 160.451 12.4897C160.357 12.4497 160.235 12.4763 160.181 12.5692L159.209 14.3202C158.386 13.9619 157.468 13.7631 156.495 13.7631C155.523 13.7631 154.605 13.9619 153.782 14.3202L152.81 12.5692C152.756 12.4763 152.634 12.4497 152.54 12.4897C152.445 12.5427 152.418 12.6621 152.472 12.7549L153.431 14.4926C151.527 15.4478 150.245 17.2783 150.245 19.3873H162.733C162.733 17.2783 161.45 15.4478 159.56 14.4926ZM166 20.9659C166 20.2098 165.379 19.6129 164.609 19.6129C163.853 19.6129 163.232 20.2098 163.232 20.9659V26.6698C163.232 27.426 163.853 28.0362 164.609 28.0362C165.379 28.0362 166 27.426 166 26.6698V20.9659Z" fill="white"/>
</svg>
