<svg width="186" height="46" viewBox="0 0 186 46" fill="none" xmlns="http://www.w3.org/2000/svg">
<rect width="127" height="46" fill="#00AFDB"/>
<path d="M25 25.9492H21.4043L20.7207 28H18.54L22.2451 18.0469H24.1455L27.8711 28H25.6904L25 25.9492ZM21.958 24.2881H24.4463L23.1953 20.5625L21.958 24.2881ZM30.8516 24.4932V28H28.8008V18.0469H32.6836C33.431 18.0469 34.0872 18.1836 34.6523 18.457C35.222 18.7305 35.6595 19.1201 35.9648 19.626C36.2702 20.1273 36.4229 20.6992 36.4229 21.3418C36.4229 22.3171 36.0879 23.0872 35.418 23.6523C34.7526 24.2129 33.8298 24.4932 32.6494 24.4932H30.8516ZM30.8516 22.832H32.6836C33.2259 22.832 33.6383 22.7044 33.9209 22.4492C34.208 22.194 34.3516 21.8294 34.3516 21.3555C34.3516 20.8678 34.208 20.4736 33.9209 20.1729C33.6338 19.8721 33.2373 19.7171 32.7314 19.708H30.8516V22.832ZM39.8887 24.4932V28H37.8379V18.0469H41.7207C42.4681 18.0469 43.1243 18.1836 43.6895 18.457C44.2591 18.7305 44.6966 19.1201 45.002 19.626C45.3073 20.1273 45.46 20.6992 45.46 21.3418C45.46 22.3171 45.125 23.0872 44.4551 23.6523C43.7897 24.2129 42.8669 24.4932 41.6865 24.4932H39.8887ZM39.8887 22.832H41.7207C42.263 22.832 42.6755 22.7044 42.958 22.4492C43.2451 22.194 43.3887 21.8294 43.3887 21.3555C43.3887 20.8678 43.2451 20.4736 42.958 20.1729C42.6709 19.8721 42.2744 19.7171 41.7686 19.708H39.8887V22.832ZM48.9258 26.3525H53.2803V28H46.875V18.0469H48.9258V26.3525ZM60.4512 23.6865H56.5137V26.3525H61.1348V28H54.4629V18.0469H61.1211V19.708H56.5137V22.0801H60.4512V23.6865ZM70.9854 25.3887C70.9854 25.0013 70.8486 24.7051 70.5752 24.5C70.3018 24.2904 69.8096 24.0716 69.0986 23.8438C68.3877 23.6113 67.8249 23.3835 67.4102 23.1602C66.2799 22.5495 65.7148 21.7269 65.7148 20.6924C65.7148 20.1546 65.8652 19.6761 66.166 19.2568C66.4714 18.833 66.9066 18.5026 67.4717 18.2656C68.0413 18.0286 68.6794 17.9102 69.3857 17.9102C70.0967 17.9102 70.7301 18.04 71.2861 18.2998C71.8421 18.555 72.2728 18.9173 72.5781 19.3867C72.888 19.8561 73.043 20.3893 73.043 20.9863H70.9922C70.9922 20.5306 70.8486 20.1774 70.5615 19.9268C70.2744 19.6715 69.8711 19.5439 69.3516 19.5439C68.8503 19.5439 68.4606 19.651 68.1826 19.8652C67.9046 20.0749 67.7656 20.3529 67.7656 20.6992C67.7656 21.0228 67.9274 21.2939 68.251 21.5127C68.5791 21.7314 69.0599 21.9365 69.6934 22.1279C70.86 22.4788 71.71 22.9141 72.2432 23.4336C72.7764 23.9531 73.043 24.6003 73.043 25.375C73.043 26.2363 72.7171 26.9131 72.0654 27.4053C71.4137 27.8929 70.5365 28.1367 69.4336 28.1367C68.668 28.1367 67.9707 27.9977 67.3418 27.7197C66.7129 27.4372 66.2321 27.0521 65.8994 26.5645C65.5713 26.0768 65.4072 25.5117 65.4072 24.8691H67.4648C67.4648 25.9674 68.1211 26.5166 69.4336 26.5166C69.9212 26.5166 70.3018 26.4186 70.5752 26.2227C70.8486 26.0221 70.9854 25.7441 70.9854 25.3887ZM81.9297 19.708H78.8809V28H76.8301V19.708H73.8223V18.0469H81.9297V19.708ZM91.0898 23.249C91.0898 24.2288 90.9167 25.0879 90.5703 25.8262C90.224 26.5645 89.7272 27.1341 89.0801 27.5352C88.4375 27.9362 87.6992 28.1367 86.8652 28.1367C86.0404 28.1367 85.3044 27.9385 84.6572 27.542C84.0101 27.1455 83.5088 26.5804 83.1533 25.8467C82.7979 25.1084 82.6178 24.2607 82.6133 23.3037V22.8115C82.6133 21.8317 82.7887 20.9704 83.1396 20.2275C83.4951 19.4801 83.9941 18.9082 84.6367 18.5117C85.2839 18.1107 86.0221 17.9102 86.8516 17.9102C87.681 17.9102 88.417 18.1107 89.0596 18.5117C89.7067 18.9082 90.2057 19.4801 90.5566 20.2275C90.9121 20.9704 91.0898 21.8294 91.0898 22.8047V23.249ZM89.0117 22.7979C89.0117 21.7542 88.8249 20.9613 88.4512 20.4189C88.0775 19.8766 87.5443 19.6055 86.8516 19.6055C86.1634 19.6055 85.6325 19.8743 85.2588 20.4121C84.8851 20.9453 84.696 21.7292 84.6914 22.7637V23.249C84.6914 24.2653 84.8783 25.0537 85.252 25.6143C85.6257 26.1748 86.1634 26.4551 86.8652 26.4551C87.5534 26.4551 88.082 26.1862 88.4512 25.6484C88.8203 25.1061 89.0072 24.3177 89.0117 23.2832V22.7979ZM96.2646 24.3564H94.6309V28H92.5801V18.0469H96.2783C97.4541 18.0469 98.361 18.3089 98.999 18.833C99.637 19.3571 99.9561 20.0977 99.9561 21.0547C99.9561 21.7337 99.8079 22.3011 99.5117 22.7568C99.2201 23.208 98.7757 23.568 98.1787 23.8369L100.332 27.9043V28H98.1309L96.2646 24.3564ZM94.6309 22.6953H96.2852C96.8001 22.6953 97.1989 22.5654 97.4814 22.3057C97.764 22.0413 97.9053 21.679 97.9053 21.2188C97.9053 20.7493 97.7708 20.3802 97.502 20.1113C97.2376 19.8424 96.8298 19.708 96.2783 19.708H94.6309V22.6953ZM107.51 23.6865H103.572V26.3525H108.193V28H101.521V18.0469H108.18V19.708H103.572V22.0801H107.51V23.6865Z" fill="white"/>
<rect width="59" height="46" transform="translate(127)" fill="#009CC2"/>
<path fill-rule="evenodd" clip-rule="evenodd" d="M164.482 27.0825C163.805 26.8851 163.198 26.4243 162.67 25.7002C162.143 24.9762 161.879 24.1534 161.879 23.2539C161.879 22.4202 162.132 21.6631 162.625 20.9829C162.9 20.5991 163.335 20.1713 163.931 19.6885C163.542 19.2277 163.14 18.8548 162.739 18.5916C162.028 18.1197 161.214 17.8785 160.297 17.8785C159.736 17.8785 159.071 18.01 158.314 18.2514C157.557 18.5037 157.007 18.6243 156.675 18.6243C156.411 18.6243 155.884 18.5147 155.093 18.2953C154.29 18.0759 153.625 17.9662 153.063 17.9662C151.745 17.9662 150.667 18.4928 149.808 19.5459C148.948 20.61 148.512 21.9703 148.512 23.6488C148.512 25.4479 149.085 27.28 150.197 29.1668C151.332 31.0537 152.467 32.0082 153.648 32.0082C154.026 32.0082 154.531 31.8875 155.161 31.6352C155.78 31.3939 156.331 31.2731 156.789 31.2731C157.259 31.2731 157.844 31.3828 158.52 31.6242C159.208 31.8546 159.736 31.9752 160.125 31.9752C161.1 31.9752 162.086 31.2621 163.072 29.8251C163.737 28.8706 164.195 27.9491 164.482 27.0825ZM160.171 14.2144C160.171 14.1376 160.16 14.0717 160.16 13.995C160.148 13.9291 160.125 13.8523 160.102 13.7536C158.773 14.0497 157.81 14.5874 157.236 15.3773C156.663 16.1671 156.365 17.1105 156.342 18.1965C156.881 18.1526 157.271 18.0868 157.534 18.01C157.947 17.8785 158.36 17.6151 158.773 17.2202C159.254 16.7594 159.61 16.2548 159.839 15.7063C160.057 15.1688 160.171 14.6642 160.171 14.2144Z" fill="white"/>
</svg>
