<svg width="180" height="46" viewBox="0 0 180 46" fill="none" xmlns="http://www.w3.org/2000/svg">
<rect width="180" height="46" fill="#00AFDB"/>
<path d="M49.9688 26.3525H54.3232V28H47.918V18.0469H49.9688V26.3525ZM61.4941 23.6865H57.5566V26.3525H62.1777V28H55.5059V18.0469H62.1641V19.708H57.5566V22.0801H61.4941V23.6865ZM69 25.9492H65.4043L64.7207 28H62.54L66.2451 18.0469H68.1455L71.8711 28H69.6904L69 25.9492ZM65.958 24.2881H68.4463L67.1953 20.5625L65.958 24.2881ZM76.4854 24.3564H74.8516V28H72.8008V18.0469H76.499C77.6748 18.0469 78.5817 18.3089 79.2197 18.833C79.8577 19.3571 80.1768 20.0977 80.1768 21.0547C80.1768 21.7337 80.0286 22.3011 79.7324 22.7568C79.4408 23.208 78.9964 23.568 78.3994 23.8369L80.5527 27.9043V28H78.3516L76.4854 24.3564ZM74.8516 22.6953H76.5059C77.0208 22.6953 77.4196 22.5654 77.7021 22.3057C77.9847 22.0413 78.126 21.679 78.126 21.2188C78.126 20.7493 77.9915 20.3802 77.7227 20.1113C77.4583 19.8424 77.0505 19.708 76.499 19.708H74.8516V22.6953ZM89.8359 28H87.7852L83.793 21.4512V28H81.7422V18.0469H83.793L87.792 24.6094V18.0469H89.8359V28ZM97.793 18.0469L100.35 25.2656L102.893 18.0469H105.586V28H103.528V25.2793L103.733 20.583L101.047 28H99.6387L96.959 20.5898L97.1641 25.2793V28H95.1133V18.0469H97.793ZM115.553 23.249C115.553 24.2288 115.38 25.0879 115.033 25.8262C114.687 26.5645 114.19 27.1341 113.543 27.5352C112.9 27.9362 112.162 28.1367 111.328 28.1367C110.503 28.1367 109.767 27.9385 109.12 27.542C108.473 27.1455 107.972 26.5804 107.616 25.8467C107.261 25.1084 107.081 24.2607 107.076 23.3037V22.8115C107.076 21.8317 107.252 20.9704 107.603 20.2275C107.958 19.4801 108.457 18.9082 109.1 18.5117C109.747 18.1107 110.485 17.9102 111.314 17.9102C112.144 17.9102 112.88 18.1107 113.522 18.5117C114.17 18.9082 114.669 19.4801 115.02 20.2275C115.375 20.9704 115.553 21.8294 115.553 22.8047V23.249ZM113.475 22.7979C113.475 21.7542 113.288 20.9613 112.914 20.4189C112.54 19.8766 112.007 19.6055 111.314 19.6055C110.626 19.6055 110.095 19.8743 109.722 20.4121C109.348 20.9453 109.159 21.7292 109.154 22.7637V23.249C109.154 24.2653 109.341 25.0537 109.715 25.6143C110.089 26.1748 110.626 26.4551 111.328 26.4551C112.016 26.4551 112.545 26.1862 112.914 25.6484C113.283 25.1061 113.47 24.3177 113.475 23.2832V22.7979ZM120.728 24.3564H119.094V28H117.043V18.0469H120.741C121.917 18.0469 122.824 18.3089 123.462 18.833C124.1 19.3571 124.419 20.0977 124.419 21.0547C124.419 21.7337 124.271 22.3011 123.975 22.7568C123.683 23.208 123.239 23.568 122.642 23.8369L124.795 27.9043V28H122.594L120.728 24.3564ZM119.094 22.6953H120.748C121.263 22.6953 121.662 22.5654 121.944 22.3057C122.227 22.0413 122.368 21.679 122.368 21.2188C122.368 20.7493 122.234 20.3802 121.965 20.1113C121.701 19.8424 121.293 19.708 120.741 19.708H119.094V22.6953ZM131.973 23.6865H128.035V26.3525H132.656V28H125.984V18.0469H132.643V19.708H128.035V22.0801H131.973V23.6865Z" fill="white"/>
</svg>
