<svg width="406" height="46" viewBox="0 0 406 46" fill="none" xmlns="http://www.w3.org/2000/svg">
<path d="M0 0H340V46H0V0Z" fill="white"/>
<path d="M30.7812 24.3994H26.4678V27.9268H31.4785V29H25.1553V19.0469H31.4102V20.127H26.4678V23.3262H30.7812V24.3994ZM35.5459 25.2881H32.21V24.2559H35.5459V25.2881ZM37.9727 21.6035L38.0068 22.4238C38.5492 21.7858 39.2806 21.4668 40.2012 21.4668C41.2357 21.4668 41.9398 21.8633 42.3135 22.6562C42.5596 22.3008 42.8786 22.0137 43.2705 21.7949C43.667 21.5762 44.1341 21.4668 44.6719 21.4668C46.2943 21.4668 47.1191 22.3258 47.1465 24.0439V29H45.8818V24.1191C45.8818 23.5905 45.7611 23.1963 45.5195 22.9365C45.278 22.6722 44.8724 22.54 44.3027 22.54C43.8333 22.54 43.4437 22.6813 43.1338 22.9639C42.8239 23.2419 42.6439 23.6178 42.5938 24.0918V29H41.3223V24.1533C41.3223 23.0778 40.7959 22.54 39.7432 22.54C38.9137 22.54 38.3464 22.8932 38.041 23.5996V29H36.7764V21.6035H37.9727ZM53.627 29C53.554 28.8542 53.4948 28.5944 53.4492 28.2207C52.8613 28.8314 52.1595 29.1367 51.3438 29.1367C50.6146 29.1367 50.0153 28.9316 49.5459 28.5215C49.0811 28.1068 48.8486 27.5827 48.8486 26.9492C48.8486 26.179 49.1403 25.582 49.7236 25.1582C50.3115 24.7298 51.1364 24.5156 52.1982 24.5156H53.4287V23.9346C53.4287 23.4925 53.2965 23.1416 53.0322 22.8818C52.7679 22.6175 52.3783 22.4854 51.8633 22.4854C51.4121 22.4854 51.0339 22.5993 50.7285 22.8271C50.4232 23.055 50.2705 23.3307 50.2705 23.6543H48.999C48.999 23.2852 49.1289 22.9297 49.3887 22.5879C49.653 22.2415 50.0085 21.9681 50.4551 21.7676C50.9062 21.5671 51.4007 21.4668 51.9385 21.4668C52.7907 21.4668 53.4583 21.681 53.9414 22.1094C54.4245 22.5332 54.6751 23.1188 54.6934 23.8662V27.2705C54.6934 27.9495 54.7799 28.4896 54.9531 28.8906V29H53.627ZM51.5283 28.0361C51.9248 28.0361 52.3008 27.9336 52.6562 27.7285C53.0117 27.5234 53.2692 27.2568 53.4287 26.9287V25.4111H52.4375C50.888 25.4111 50.1133 25.8646 50.1133 26.7715C50.1133 27.168 50.2454 27.4779 50.5098 27.7012C50.7741 27.9245 51.1136 28.0361 51.5283 28.0361ZM58.0498 29H56.7852V21.6035H58.0498V29ZM56.6826 19.6416C56.6826 19.4365 56.7441 19.2633 56.8672 19.1221C56.9948 18.9808 57.1816 18.9102 57.4277 18.9102C57.6738 18.9102 57.8607 18.9808 57.9883 19.1221C58.1159 19.2633 58.1797 19.4365 58.1797 19.6416C58.1797 19.8467 58.1159 20.0176 57.9883 20.1543C57.8607 20.291 57.6738 20.3594 57.4277 20.3594C57.1816 20.3594 56.9948 20.291 56.8672 20.1543C56.7441 20.0176 56.6826 19.8467 56.6826 19.6416ZM61.4541 29H60.1895V18.5H61.4541V29Z" fill="#373737"/>
<path d="M340 0H406V46H340V0Z" fill="#00AFDB"/>
<path fill-rule="evenodd" clip-rule="evenodd" d="M382.173 18.9721C382.173 18.694 382.067 18.4158 381.875 18.2155L380.425 16.7024C380.233 16.5021 379.966 16.3909 379.7 16.3909C379.433 16.3909 379.167 16.5021 378.975 16.7024L371.981 24.0124L368.847 20.73C368.655 20.5298 368.388 20.4185 368.122 20.4185C367.855 20.4185 367.589 20.5298 367.397 20.73L365.947 22.2433C365.755 22.4435 365.648 22.7216 365.648 22.9999C365.648 23.2779 365.755 23.556 365.947 23.7564L369.806 27.784L371.256 29.2973C371.448 29.4975 371.715 29.6088 371.981 29.6088C372.248 29.6088 372.514 29.4975 372.706 29.2973L374.156 27.784L381.875 19.7287C382.067 19.5285 382.173 19.2504 382.173 18.9721Z" fill="white"/>
</svg>
