<svg width="83" height="20" viewBox="0 0 83 20" fill="none" xmlns="http://www.w3.org/2000/svg">
<path d="M29.7578 16H28.123V5.16309L24.8447 6.36719V4.89062L29.5029 3.1416H29.7578V16ZM39.6367 17.0986H37.958L42.9941 3.20312H44.6729L39.6367 17.0986ZM51.3525 9.58398L52.0029 3.20312H58.5596V4.70605H53.3828L52.9961 8.19531C53.623 7.82617 54.335 7.6416 55.1318 7.6416C56.2979 7.6416 57.2236 8.02832 57.9092 8.80176C58.5947 9.56934 58.9375 10.6094 58.9375 11.9219C58.9375 13.2402 58.5801 14.2803 57.8652 15.042C57.1562 15.7979 56.1631 16.1758 54.8857 16.1758C53.7549 16.1758 52.832 15.8623 52.1172 15.2354C51.4023 14.6084 50.9951 13.7412 50.8955 12.6338H52.4336C52.5332 13.3662 52.7939 13.9199 53.2158 14.2949C53.6377 14.6641 54.1943 14.8486 54.8857 14.8486C55.6416 14.8486 56.2334 14.5908 56.6611 14.0752C57.0947 13.5596 57.3115 12.8477 57.3115 11.9395C57.3115 11.084 57.0771 10.3984 56.6084 9.88281C56.1455 9.36133 55.5273 9.10059 54.7539 9.10059C54.0449 9.10059 53.4883 9.25586 53.084 9.56641L52.6533 9.91797L51.3525 9.58398Z" fill="#373737"/>
<path d="M7.65685 4.34315L2 10L7.65685 15.6569" stroke="#373737" stroke-width="2"/>
<path d="M75.3431 4.34315L81 10L75.3431 15.6569" stroke="#373737" stroke-width="2"/>
</svg>
